<svg width="21" height="21" viewBox="0 0 21 21" fill="none" xmlns="http://www.w3.org/2000/svg">
<g clip-path="url(#clip0_4230_2295)">
<path d="M20.6626 10.8699C20.6626 10.1702 20.6059 9.46668 20.4848 8.77832H10.7759V12.7421H16.3357C16.105 14.0205 15.3637 15.1514 14.2782 15.87V18.4419H17.5952C19.5431 16.6491 20.6626 14.0016 20.6626 10.8699Z" fill="#4285F4"/>
<path d="M10.7759 20.9268C13.552 20.9268 15.8932 20.0153 17.599 18.4419L14.282 15.87C13.3591 16.4979 12.1677 16.8534 10.7796 16.8534C8.09427 16.8534 5.81738 15.0417 5.00042 12.606H1.57751V15.2573C3.3249 18.7331 6.88397 20.9268 10.7759 20.9268Z" fill="#34A853"/>
<path d="M4.99662 12.6061C4.56545 11.3277 4.56545 9.94339 4.99662 8.665V6.01367H1.5775C0.11756 8.9222 0.11756 12.3489 1.5775 15.2574L4.99662 12.6061Z" fill="#FBBC04"/>
<path d="M10.7759 4.41362C12.2434 4.39092 13.6617 4.94313 14.7245 5.95676L17.6633 3.01798C15.8024 1.2706 13.3326 0.309913 10.7759 0.340171C6.88396 0.340171 3.3249 2.53386 1.57751 6.01349L4.99664 8.66483C5.80981 6.2253 8.09049 4.41362 10.7759 4.41362Z" fill="#EA4335"/>
</g>
<defs>
<clipPath id="clip0_4230_2295">
<rect width="20.5866" height="20.5866" fill="white" transform="translate(0.276733 0.339355)"/>
</clipPath>
</defs>
</svg>
